# xmcd CD database file
#
# Track frame offsets:
#	150
#	15276
#	34542
#	48444
#	63527
#	78518
#	93010
#	115979
#	127755
#	143917
#	156476
#	175880
#	189400
#	202486
#
# Disc length: 2970 seconds
#
# Revision: 0
# Processed by: cddbd v1.5.2PL0 Copyright (c) Steve Scherf et al.
# Submitted via: CDex 1.51
#
DISCID=b90b980e
DTITLE=Slidin' Slim - One Man Riot
DYEAR=2011
DGENRE=Blues
TTITLE0=Brand New Face
TTITLE1=Devile In Disyuise
TTITLE2=God Knows I Tried
TTITLE3=They Call Me Mr. Misfit
TTITLE4=Rescue Me
TTITLE5=It Ain`t Right
TTITLE6=Lead To My Grave
TTITLE7=You Called Me Up
TTITLE8=Please Tell Me
TTITLE9=You`ve BeenA Waste Of Time
TTITLE10=Somebody Wish That I Was Dead
TTITLE11=Screwed
TTITLE12=In The Darkness
TTITLE13=This Ain`t Driking
EXTD=YEAR: 2011
EXTT0=
EXTT1=
EXTT2=
EXTT3=
EXTT4=
EXTT5=
EXTT6=
EXTT7=
EXTT8=
EXTT9=
EXTT10=
EXTT11=
EXTT12=
EXTT13=
PLAYORDER=
